<mxfile host="app.diagrams.net" modified="2021-08-14T11:45:14.623Z" agent="5.0 (Windows NT 10.0; Win64; x64) AppleWebKit/537.36 (KHTML, like Gecko) Chrome/92.0.4515.131 Safari/537.36" etag="LvtcwrOUzfT8bZWSPx6j" version="14.4.2" type="github">
  <diagram id="ZYOT2A9pMRVEgB5S3qTo" name="Page-1">
    <mxGraphModel dx="1903" dy="621" grid="1" gridSize="10" guides="1" tooltips="1" connect="1" arrows="1" fold="1" page="1" pageScale="1" pageWidth="850" pageHeight="1100" math="0" shadow="0">
      <root>
        <mxCell id="0" />
        <mxCell id="1" parent="0" />
        <mxCell id="k_Km968nEYDGOmCtCJIA-1" value="Web GUI visualization&lt;br&gt;(HTML + JS)" style="rounded=0;whiteSpace=wrap;html=1;" vertex="1" parent="1">
          <mxGeometry x="-180" y="290" width="180" height="70" as="geometry" />
        </mxCell>
        <mxCell id="k_Km968nEYDGOmCtCJIA-2" value="Web API" style="rounded=0;whiteSpace=wrap;html=1;" vertex="1" parent="1">
          <mxGeometry x="365" y="295" width="95" height="60" as="geometry" />
        </mxCell>
        <mxCell id="k_Km968nEYDGOmCtCJIA-3" value="" style="rounded=0;whiteSpace=wrap;html=1;" vertex="1" parent="1">
          <mxGeometry x="450" y="480" width="200" height="130" as="geometry" />
        </mxCell>
        <mxCell id="k_Km968nEYDGOmCtCJIA-4" value="Bt_worker" style="rounded=1;whiteSpace=wrap;html=1;" vertex="1" parent="1">
          <mxGeometry x="510" y="520" width="100" height="30" as="geometry" />
        </mxCell>
        <mxCell id="k_Km968nEYDGOmCtCJIA-5" value="Sys Manager" style="text;html=1;strokeColor=none;fillColor=none;align=center;verticalAlign=middle;whiteSpace=wrap;rounded=0;" vertex="1" parent="1">
          <mxGeometry x="470" y="490" width="90" height="20" as="geometry" />
        </mxCell>
        <mxCell id="k_Km968nEYDGOmCtCJIA-7" value="commands_worker" style="rounded=1;whiteSpace=wrap;html=1;" vertex="1" parent="1">
          <mxGeometry x="510" y="570" width="120" height="30" as="geometry" />
        </mxCell>
        <mxCell id="k_Km968nEYDGOmCtCJIA-8" value="" style="shape=flexArrow;endArrow=classic;startArrow=classic;html=1;exitX=1;exitY=0.5;exitDx=0;exitDy=0;entryX=0;entryY=0.5;entryDx=0;entryDy=0;" edge="1" parent="1" source="k_Km968nEYDGOmCtCJIA-1" target="k_Km968nEYDGOmCtCJIA-2">
          <mxGeometry width="50" height="50" relative="1" as="geometry">
            <mxPoint x="400" y="490" as="sourcePoint" />
            <mxPoint x="450" y="440" as="targetPoint" />
          </mxGeometry>
        </mxCell>
        <mxCell id="k_Km968nEYDGOmCtCJIA-9" value="" style="endArrow=classic;startArrow=classic;html=1;entryX=0.5;entryY=1;entryDx=0;entryDy=0;exitX=0;exitY=0.5;exitDx=0;exitDy=0;" edge="1" parent="1" source="k_Km968nEYDGOmCtCJIA-7" target="k_Km968nEYDGOmCtCJIA-2">
          <mxGeometry width="50" height="50" relative="1" as="geometry">
            <mxPoint x="400" y="490" as="sourcePoint" />
            <mxPoint x="450" y="440" as="targetPoint" />
            <Array as="points">
              <mxPoint x="410" y="585" />
            </Array>
          </mxGeometry>
        </mxCell>
        <mxCell id="k_Km968nEYDGOmCtCJIA-10" value="e.g. api/v1/commands?command=log&amp;amp;args[0]=dpm" style="text;html=1;strokeColor=none;fillColor=none;align=center;verticalAlign=middle;whiteSpace=wrap;rounded=0;" vertex="1" parent="1">
          <mxGeometry x="30" y="260" width="311" height="20" as="geometry" />
        </mxCell>
        <mxCell id="k_Km968nEYDGOmCtCJIA-14" value="OK&lt;br&gt;" style="text;html=1;align=center;verticalAlign=middle;resizable=0;points=[];autosize=1;" vertex="1" parent="1">
          <mxGeometry x="230" y="460" width="30" height="20" as="geometry" />
        </mxCell>
        <mxCell id="k_Km968nEYDGOmCtCJIA-16" value="Command Msg" style="text;html=1;align=center;verticalAlign=middle;resizable=0;points=[];autosize=1;" vertex="1" parent="1">
          <mxGeometry x="420" y="430" width="100" height="20" as="geometry" />
        </mxCell>
        <mxCell id="k_Km968nEYDGOmCtCJIA-19" value="" style="endArrow=classic;html=1;" edge="1" parent="1">
          <mxGeometry width="50" height="50" relative="1" as="geometry">
            <mxPoint x="425" y="420" as="sourcePoint" />
            <mxPoint x="425" y="460" as="targetPoint" />
          </mxGeometry>
        </mxCell>
        <mxCell id="k_Km968nEYDGOmCtCJIA-20" value="" style="endArrow=classic;html=1;" edge="1" parent="1">
          <mxGeometry width="50" height="50" relative="1" as="geometry">
            <mxPoint x="390" y="460" as="sourcePoint" />
            <mxPoint x="390" y="420" as="targetPoint" />
          </mxGeometry>
        </mxCell>
        <mxCell id="k_Km968nEYDGOmCtCJIA-21" value="Response Msg" style="text;html=1;align=center;verticalAlign=middle;resizable=0;points=[];autosize=1;" vertex="1" parent="1">
          <mxGeometry x="290" y="430" width="100" height="20" as="geometry" />
        </mxCell>
        <mxCell id="k_Km968nEYDGOmCtCJIA-22" value="+" style="text;html=1;align=center;verticalAlign=middle;resizable=0;points=[];autosize=1;fontSize=25;" vertex="1" parent="1">
          <mxGeometry x="265" y="450" width="30" height="40" as="geometry" />
        </mxCell>
        <mxCell id="k_Km968nEYDGOmCtCJIA-23" value="web socket id" style="text;html=1;align=center;verticalAlign=middle;resizable=0;points=[];autosize=1;" vertex="1" parent="1">
          <mxGeometry x="295" y="460" width="90" height="20" as="geometry" />
        </mxCell>
        <mxCell id="k_Km968nEYDGOmCtCJIA-27" style="edgeStyle=orthogonalEdgeStyle;rounded=0;orthogonalLoop=1;jettySize=auto;html=1;exitX=0.5;exitY=1;exitDx=0;exitDy=0;entryX=0.5;entryY=0;entryDx=0;entryDy=0;fontSize=25;" edge="1" parent="1" source="k_Km968nEYDGOmCtCJIA-25" target="k_Km968nEYDGOmCtCJIA-26">
          <mxGeometry relative="1" as="geometry" />
        </mxCell>
        <mxCell id="k_Km968nEYDGOmCtCJIA-25" value="Command_worker&lt;br&gt;created" style="ellipse;whiteSpace=wrap;html=1;fontSize=25;" vertex="1" parent="1">
          <mxGeometry x="120" y="650" width="250" height="80" as="geometry" />
        </mxCell>
        <mxCell id="k_Km968nEYDGOmCtCJIA-47" style="edgeStyle=orthogonalEdgeStyle;rounded=0;orthogonalLoop=1;jettySize=auto;html=1;exitX=0.5;exitY=1;exitDx=0;exitDy=0;entryX=0.5;entryY=0;entryDx=0;entryDy=0;fontSize=25;" edge="1" parent="1" source="k_Km968nEYDGOmCtCJIA-26" target="k_Km968nEYDGOmCtCJIA-30">
          <mxGeometry relative="1" as="geometry" />
        </mxCell>
        <mxCell id="k_Km968nEYDGOmCtCJIA-26" value="Execute command&lt;br&gt;with Subprocess.Popen" style="rounded=0;whiteSpace=wrap;html=1;fontSize=25;" vertex="1" parent="1">
          <mxGeometry x="108.75" y="770" width="272.5" height="60" as="geometry" />
        </mxCell>
        <mxCell id="k_Km968nEYDGOmCtCJIA-29" value="e.g." style="text;html=1;align=center;verticalAlign=middle;resizable=0;points=[];autosize=1;fontSize=25;" vertex="1" parent="1">
          <mxGeometry x="175" y="444" width="60" height="40" as="geometry" />
        </mxCell>
        <mxCell id="k_Km968nEYDGOmCtCJIA-48" style="edgeStyle=orthogonalEdgeStyle;rounded=0;orthogonalLoop=1;jettySize=auto;html=1;exitX=0.5;exitY=1;exitDx=0;exitDy=0;entryX=0.5;entryY=0;entryDx=0;entryDy=0;fontSize=25;" edge="1" parent="1" source="k_Km968nEYDGOmCtCJIA-30" target="k_Km968nEYDGOmCtCJIA-53">
          <mxGeometry relative="1" as="geometry">
            <mxPoint x="247.5" y="960" as="targetPoint" />
          </mxGeometry>
        </mxCell>
        <mxCell id="k_Km968nEYDGOmCtCJIA-30" value="Cache command results" style="rounded=0;whiteSpace=wrap;html=1;fontSize=25;" vertex="1" parent="1">
          <mxGeometry x="130" y="860" width="235" height="60" as="geometry" />
        </mxCell>
        <mxCell id="k_Km968nEYDGOmCtCJIA-49" style="edgeStyle=orthogonalEdgeStyle;rounded=0;orthogonalLoop=1;jettySize=auto;html=1;exitX=0.5;exitY=1;exitDx=0;exitDy=0;entryX=0.5;entryY=0;entryDx=0;entryDy=0;fontSize=25;" edge="1" parent="1" source="k_Km968nEYDGOmCtCJIA-53" target="k_Km968nEYDGOmCtCJIA-33">
          <mxGeometry relative="1" as="geometry">
            <mxPoint x="247.5" y="1020" as="sourcePoint" />
          </mxGeometry>
        </mxCell>
        <mxCell id="k_Km968nEYDGOmCtCJIA-50" style="edgeStyle=orthogonalEdgeStyle;rounded=0;orthogonalLoop=1;jettySize=auto;html=1;exitX=0.5;exitY=1;exitDx=0;exitDy=0;fontSize=25;" edge="1" parent="1" source="k_Km968nEYDGOmCtCJIA-33" target="k_Km968nEYDGOmCtCJIA-34">
          <mxGeometry relative="1" as="geometry" />
        </mxCell>
        <mxCell id="k_Km968nEYDGOmCtCJIA-33" value="Send buffered results through web socket" style="rounded=0;whiteSpace=wrap;html=1;fontSize=25;" vertex="1" parent="1">
          <mxGeometry x="130" y="1060" width="235" height="90" as="geometry" />
        </mxCell>
        <mxCell id="k_Km968nEYDGOmCtCJIA-37" style="edgeStyle=orthogonalEdgeStyle;rounded=0;orthogonalLoop=1;jettySize=auto;html=1;exitX=0.5;exitY=1;exitDx=0;exitDy=0;entryX=0.5;entryY=0;entryDx=0;entryDy=0;fontSize=25;" edge="1" parent="1" source="k_Km968nEYDGOmCtCJIA-34" target="k_Km968nEYDGOmCtCJIA-36">
          <mxGeometry relative="1" as="geometry" />
        </mxCell>
        <mxCell id="k_Km968nEYDGOmCtCJIA-41" style="edgeStyle=orthogonalEdgeStyle;rounded=0;orthogonalLoop=1;jettySize=auto;html=1;exitX=1;exitY=0.5;exitDx=0;exitDy=0;entryX=0.5;entryY=1;entryDx=0;entryDy=0;fontSize=25;" edge="1" parent="1" source="k_Km968nEYDGOmCtCJIA-34" target="k_Km968nEYDGOmCtCJIA-40">
          <mxGeometry relative="1" as="geometry" />
        </mxCell>
        <mxCell id="k_Km968nEYDGOmCtCJIA-34" value="Should Close?" style="rhombus;whiteSpace=wrap;html=1;fontSize=25;" vertex="1" parent="1">
          <mxGeometry x="136.38" y="1200" width="222.25" height="80" as="geometry" />
        </mxCell>
        <mxCell id="k_Km968nEYDGOmCtCJIA-35" value="Command_worker&lt;br&gt;created" style="ellipse;whiteSpace=wrap;html=1;fontSize=25;" vertex="1" parent="1">
          <mxGeometry x="123.63000000000001" y="1440" width="250" height="80" as="geometry" />
        </mxCell>
        <mxCell id="k_Km968nEYDGOmCtCJIA-38" style="edgeStyle=orthogonalEdgeStyle;rounded=0;orthogonalLoop=1;jettySize=auto;html=1;exitX=0.5;exitY=1;exitDx=0;exitDy=0;entryX=0.5;entryY=0;entryDx=0;entryDy=0;fontSize=25;" edge="1" parent="1" source="k_Km968nEYDGOmCtCJIA-36" target="k_Km968nEYDGOmCtCJIA-35">
          <mxGeometry relative="1" as="geometry" />
        </mxCell>
        <mxCell id="k_Km968nEYDGOmCtCJIA-36" value="Clear work" style="rounded=0;whiteSpace=wrap;html=1;fontSize=25;" vertex="1" parent="1">
          <mxGeometry x="131.13" y="1320" width="235" height="90" as="geometry" />
        </mxCell>
        <mxCell id="k_Km968nEYDGOmCtCJIA-39" value="Yes" style="text;html=1;align=center;verticalAlign=middle;resizable=0;points=[];autosize=1;fontSize=25;" vertex="1" parent="1">
          <mxGeometry x="260" y="1280" width="60" height="40" as="geometry" />
        </mxCell>
        <mxCell id="k_Km968nEYDGOmCtCJIA-43" style="edgeStyle=orthogonalEdgeStyle;rounded=0;orthogonalLoop=1;jettySize=auto;html=1;exitX=0.5;exitY=0;exitDx=0;exitDy=0;fontSize=25;" edge="1" parent="1" source="k_Km968nEYDGOmCtCJIA-40" target="k_Km968nEYDGOmCtCJIA-42">
          <mxGeometry relative="1" as="geometry" />
        </mxCell>
        <mxCell id="k_Km968nEYDGOmCtCJIA-40" value="Receive new msg from web client with timeout" style="rounded=0;whiteSpace=wrap;html=1;fontSize=25;" vertex="1" parent="1">
          <mxGeometry x="460" y="1130" width="235" height="90" as="geometry" />
        </mxCell>
        <mxCell id="k_Km968nEYDGOmCtCJIA-45" style="edgeStyle=orthogonalEdgeStyle;rounded=0;orthogonalLoop=1;jettySize=auto;html=1;exitX=0.5;exitY=0;exitDx=0;exitDy=0;entryX=0.5;entryY=1;entryDx=0;entryDy=0;fontSize=25;" edge="1" parent="1" source="k_Km968nEYDGOmCtCJIA-42" target="k_Km968nEYDGOmCtCJIA-44">
          <mxGeometry relative="1" as="geometry" />
        </mxCell>
        <mxCell id="k_Km968nEYDGOmCtCJIA-42" value="Interact with prvious command&lt;br&gt;(do nothing if no new msg)" style="rounded=0;whiteSpace=wrap;html=1;fontSize=25;" vertex="1" parent="1">
          <mxGeometry x="427.5" y="1020" width="300" height="90" as="geometry" />
        </mxCell>
        <mxCell id="k_Km968nEYDGOmCtCJIA-51" style="edgeStyle=orthogonalEdgeStyle;rounded=0;orthogonalLoop=1;jettySize=auto;html=1;exitX=0;exitY=0.5;exitDx=0;exitDy=0;fontSize=25;" edge="1" parent="1" source="k_Km968nEYDGOmCtCJIA-44" target="k_Km968nEYDGOmCtCJIA-34">
          <mxGeometry relative="1" as="geometry">
            <Array as="points">
              <mxPoint x="400" y="955" />
              <mxPoint x="400" y="1180" />
              <mxPoint x="248" y="1180" />
            </Array>
          </mxGeometry>
        </mxCell>
        <mxCell id="k_Km968nEYDGOmCtCJIA-44" value="Cache command result" style="rounded=0;whiteSpace=wrap;html=1;fontSize=25;" vertex="1" parent="1">
          <mxGeometry x="427.5" y="910" width="300" height="90" as="geometry" />
        </mxCell>
        <mxCell id="k_Km968nEYDGOmCtCJIA-52" value="When to close:&lt;br&gt;&lt;div&gt;&lt;span&gt;Case 1: no web sockted connected&lt;/span&gt;&lt;/div&gt;&lt;div&gt;&lt;span&gt;Case 2: Popen process is closed&lt;/span&gt;&lt;span&gt;&amp;nbsp;&lt;/span&gt;&lt;/div&gt;" style="text;html=1;align=left;verticalAlign=middle;resizable=0;points=[];autosize=1;fontSize=25;" vertex="1" parent="1">
          <mxGeometry x="490" y="1305" width="400" height="100" as="geometry" />
        </mxCell>
        <mxCell id="k_Km968nEYDGOmCtCJIA-54" style="edgeStyle=orthogonalEdgeStyle;rounded=0;orthogonalLoop=1;jettySize=auto;html=1;exitX=0;exitY=0.5;exitDx=0;exitDy=0;entryX=0.5;entryY=0;entryDx=0;entryDy=0;fontSize=25;" edge="1" parent="1" source="k_Km968nEYDGOmCtCJIA-53" target="k_Km968nEYDGOmCtCJIA-34">
          <mxGeometry relative="1" as="geometry">
            <Array as="points">
              <mxPoint x="62" y="990" />
              <mxPoint x="62" y="1170" />
              <mxPoint x="249" y="1170" />
              <mxPoint x="249" y="1200" />
            </Array>
          </mxGeometry>
        </mxCell>
        <mxCell id="k_Km968nEYDGOmCtCJIA-53" value="Wait Until web socket connected?" style="rhombus;whiteSpace=wrap;html=1;fontSize=25;" vertex="1" parent="1">
          <mxGeometry x="81.93" y="950" width="326.13" height="80" as="geometry" />
        </mxCell>
        <mxCell id="k_Km968nEYDGOmCtCJIA-55" value="Time out and no&lt;br&gt;&amp;nbsp;client connected" style="text;html=1;align=center;verticalAlign=middle;resizable=0;points=[];autosize=1;fontSize=25;" vertex="1" parent="1">
          <mxGeometry x="-140" y="1100" width="200" height="70" as="geometry" />
        </mxCell>
      </root>
    </mxGraphModel>
  </diagram>
</mxfile>
